# xmcd
#
# Track frame offsets:
#	150
#	16452
#	31665
#	51137
#	69585
#	92790
#	107476
#	125044
#	143559
#	157755
#	174760
#
# Disc length: 2493 seconds
#
# Revision: 1
# Processed by: cddbd v1.5.2PL0 Copyright (c) Steve Scherf et al.
# Submitted via: audiograbber 1.83.01
#
DISCID=8009bb0b
DTITLE=Beoga - The Incident
DYEAR=2009
DGENRE=Irish
TTITLE0=Lamped
TTITLE1=Antics
TTITLE2=Mary Danced With Soldiers
TTITLE3=Mister Molly's
TTITLE4=The Flying Golf Club
TTITLE5=Strange Things
TTITLE6=The Incident
TTITLE7=The Bellevue Waltz
TTITLE8=On The Way
TTITLE9=Fly Fishing
TTITLE10=The Best Is Yet To Come
EXTD=
EXTT0=
EXTT1=
EXTT2=
EXTT3=
EXTT4=
EXTT5=
EXTT6=
EXTT7=
EXTT8=
EXTT9=
EXTT10=
PLAYORDER=
